<?xml version="1.0" encoding="utf-8"?>
<!-- Generator: Adobe Illustrator 16.0.4, SVG Export Plug-In . SVG Version: 6.00 Build 0)  -->
<!DOCTYPE svg PUBLIC "-//W3C//DTD SVG 1.1//EN" "http://www.w3.org/Graphics/SVG/1.1/DTD/svg11.dtd">
<svg version="1.1" id="signature" xmlns="http://www.w3.org/2000/svg" xmlns:xlink="http://www.w3.org/1999/xlink" x="0px" y="0px"
	 width="519.463px" height="98.542px" viewBox="0 0 519.463 98.542" enable-background="new 0 0 519.463 98.542"
	 xml:space="preserve">
<g>
	<g>
		<polygon fill="#CFB87C" points="55.583,19.885 55.583,11.615 45.73,1.739 11.585,1.739 1.699,11.613 1.699,45.699 11.585,55.567 
			22.429,55.567 22.429,63.86 32.394,73.739 61.207,73.739 71.197,63.87 71.197,37.464 76.283,37.464 76.283,19.885 		"/>
		<polygon points="45.308,2.763 54.558,12.039 54.558,20.91 75.257,20.91 75.257,36.445 70.169,36.445 70.169,63.44 60.787,72.713 
			32.812,72.713 23.454,63.44 23.454,54.543 12.007,54.543 2.724,45.27 2.724,12.039 12.007,2.763 		"/>
		<polyline fill="#FFFFFF" points="13.068,51.98 26.014,51.98 26.014,62.37 33.867,70.153 59.734,70.153 67.609,62.37 
			67.609,33.881 72.699,33.881 72.699,23.471 57.083,23.471 57.083,59.754 36.421,59.754 36.421,51.98 44.242,51.98 52,44.207 
			52,33.881 41.593,33.881 41.593,41.598 36.421,41.598 36.421,23.471 20.851,23.471 20.851,33.881 26.014,33.881 26.014,41.598 
			15.667,41.598 15.667,15.633 41.593,15.633 41.593,23.471 52,23.471 52,13.102 44.242,5.323 13.068,5.323 5.28,13.1 5.28,44.207 
			13.068,51.98 		"/>
		<polygon fill="#CFB87C" points="35.138,50.699 43.712,50.699 50.718,43.682 50.718,35.162 42.876,35.162 42.876,42.876 
			35.138,42.876 35.138,24.754 22.13,24.754 22.13,32.604 27.296,32.604 27.296,42.876 14.39,42.876 14.39,14.355 42.876,14.355 
			42.876,22.191 50.718,22.191 50.718,13.63 43.712,6.604 13.599,6.604 6.562,13.63 6.562,43.682 13.596,50.699 27.296,50.699 
			27.296,61.836 34.396,68.875 59.207,68.875 66.33,61.831 66.33,32.604 71.416,32.604 71.416,24.754 58.365,24.754 58.365,61.032 
			35.138,61.032 		"/>
	</g>
	<g>
		<path d="M94.795,66.212c-0.042,2.06,1.442,2.689,3.264,2.689c1.05,0,2.647-0.574,2.647-2.031c0-1.134-1.135-1.582-2.059-1.807
			l-2.228-0.546c-1.176-0.295-2.255-0.854-2.255-2.41c0-0.98,0.63-2.815,3.446-2.815c1.975,0,3.712,1.065,3.698,3.11h-0.953
			c-0.056-1.527-1.316-2.298-2.731-2.298c-1.303,0-2.507,0.505-2.507,1.989c0,0.938,0.701,1.331,1.513,1.527l2.437,0.602
			c1.415,0.379,2.591,0.995,2.591,2.634c0,0.687-0.28,2.857-3.824,2.857c-2.368,0-4.104-1.064-3.992-3.502H94.795z"/>
		<path d="M111.009,62.529c-0.336-1.541-1.611-2.424-3.067-2.424c-2.647,0-3.768,2.214-3.768,4.398c0,2.186,1.121,4.398,3.768,4.398
			c1.849,0,3.025-1.429,3.208-3.208h0.953c-0.266,2.452-1.821,4.021-4.16,4.021c-3.152,0-4.721-2.479-4.721-5.211
			s1.569-5.211,4.721-5.211c1.891,0,3.768,1.135,4.02,3.236H111.009z"/>
		<path d="M114.188,59.503h0.952v4.342h5.939v-4.342h0.952v10.001h-0.952v-4.847h-5.939v4.847h-0.952V59.503z"/>
		<path d="M128.909,59.292c3.138,0,4.707,2.479,4.707,5.211s-1.569,5.211-4.707,5.211c-3.152,0-4.721-2.479-4.721-5.211
			S125.757,59.292,128.909,59.292z M128.909,68.902c2.633,0,3.754-2.213,3.754-4.398c0-2.185-1.121-4.398-3.754-4.398
			c-2.647,0-3.768,2.214-3.768,4.398C125.141,66.689,126.262,68.902,128.909,68.902z"/>
		<path d="M139.975,59.292c3.138,0,4.707,2.479,4.707,5.211s-1.569,5.211-4.707,5.211c-3.152,0-4.721-2.479-4.721-5.211
			S136.823,59.292,139.975,59.292z M139.975,68.902c2.633,0,3.754-2.213,3.754-4.398c0-2.185-1.121-4.398-3.754-4.398
			c-2.647,0-3.768,2.214-3.768,4.398C136.207,66.689,137.328,68.902,139.975,68.902z"/>
		<path d="M146.845,59.503h0.953v9.188h5.603v0.812h-6.556V59.503z"/>
		<path d="M163.844,59.292c3.138,0,4.706,2.479,4.706,5.211s-1.568,5.211-4.706,5.211c-3.152,0-4.721-2.479-4.721-5.211
			S160.692,59.292,163.844,59.292z M163.844,68.902c2.633,0,3.754-2.213,3.754-4.398c0-2.185-1.121-4.398-3.754-4.398
			c-2.648,0-3.769,2.214-3.769,4.398C160.076,66.689,161.196,68.902,163.844,68.902z"/>
		<path d="M170.713,59.503h6.345v0.812h-5.393v3.614h4.791v0.812h-4.791v4.763h-0.952V59.503z"/>
		<path d="M183.495,59.503h1.4l3.46,8.769l3.446-8.769h1.4v10.001h-0.952v-8.643h-0.028l-3.418,8.643h-0.896l-3.432-8.643h-0.028
			v8.643h-0.952V59.503z"/>
		<path d="M195.87,59.503h6.905v0.812h-5.953v3.614h5.575v0.812h-5.575v3.95h6.023v0.812h-6.976V59.503z"/>
		<path d="M204.667,59.503h3.46c3.012,0.069,4.594,1.723,4.594,5c0,3.278-1.582,4.931-4.594,5.001h-3.46V59.503z M205.62,68.692
			h2.031c2.871,0.014,4.118-1.205,4.118-4.188s-1.247-4.202-4.118-4.188h-2.031V68.692z"/>
		<path d="M214.984,59.503h0.953v10.001h-0.953V59.503z"/>
		<path d="M225.946,62.529c-0.336-1.541-1.61-2.424-3.067-2.424c-2.647,0-3.769,2.214-3.769,4.398c0,2.186,1.121,4.398,3.769,4.398
			c1.849,0,3.025-1.429,3.208-3.208h0.952c-0.267,2.452-1.821,4.021-4.16,4.021c-3.151,0-4.721-2.479-4.721-5.211
			s1.569-5.211,4.721-5.211c1.891,0,3.768,1.135,4.021,3.236H225.946z"/>
		<path d="M229.18,59.503h0.953v10.001h-0.953V59.503z"/>
		<path d="M232.814,59.503h1.065l5.827,8.46h0.027v-8.46h0.953v10.001h-1.065l-5.827-8.461h-0.027v8.461h-0.953V59.503z"/>
		<path d="M243.355,59.503h6.905v0.812h-5.953v3.614h5.575v0.812h-5.575v3.95h6.023v0.812h-6.976V59.503z"/>
		<path d="M94.249,87.303h0.952v6.191c-0.014,2.325,1.093,3.207,2.928,3.207c1.849,0,2.956-0.882,2.942-3.207v-6.191h0.952v6.401
			c0,2.059-1.106,3.81-3.894,3.81c-2.773,0-3.88-1.751-3.88-3.81V87.303z"/>
		<path d="M104.617,87.303h1.064l5.827,8.46h0.028v-8.46h0.953v10.001h-1.064l-5.827-8.461h-0.028v8.461h-0.953V87.303z"/>
		<path d="M115.188,87.303h0.953v10.001h-0.953V87.303z"/>
		<path d="M117.776,87.303h1.022l3.25,8.95h0.028l3.222-8.95h1.009l-3.712,10.001h-1.107L117.776,87.303z"/>
		<path d="M127.906,87.303h6.906v0.812h-5.953v3.613h5.575v0.812h-5.575v3.95h6.023v0.812h-6.976V87.303z"/>
		<path d="M136.704,87.303h4.58c1.653,0,3.04,0.798,3.04,2.605c0,1.26-0.659,2.297-1.947,2.549v0.028
			c1.303,0.168,1.681,1.064,1.751,2.255c0.042,0.687,0.042,2.06,0.462,2.563h-1.051c-0.238-0.393-0.238-1.135-0.266-1.555
			c-0.084-1.401-0.196-2.956-2.003-2.886h-3.614v4.44h-0.952V87.303z M137.656,92.051h3.558c1.163,0,2.157-0.729,2.157-1.947
			s-0.729-1.988-2.157-1.988h-3.558V92.051z"/>
		<path d="M147.111,94.012c-0.042,2.06,1.443,2.689,3.264,2.689c1.05,0,2.647-0.574,2.647-2.031c0-1.134-1.135-1.582-2.059-1.807
			l-2.228-0.546c-1.177-0.295-2.255-0.854-2.255-2.409c0-0.981,0.63-2.816,3.446-2.816c1.975,0,3.712,1.065,3.698,3.11h-0.953
			c-0.056-1.527-1.316-2.298-2.731-2.298c-1.303,0-2.507,0.505-2.507,1.989c0,0.938,0.701,1.331,1.513,1.527l2.437,0.602
			c1.415,0.379,2.591,0.995,2.591,2.634c0,0.687-0.28,2.857-3.824,2.857c-2.367,0-4.104-1.064-3.992-3.502H147.111z"/>
		<path d="M156.174,87.303h0.953v10.001h-0.953V87.303z"/>
		<path d="M158.776,87.303h7.928v0.812h-3.488v9.188h-0.952v-9.188h-3.488V87.303z"/>
		<path d="M171.695,93.186l-3.936-5.883h1.134l3.292,5.07l3.278-5.07h1.134l-3.949,5.883v4.118h-0.953V93.186z"/>
		<path d="M186.941,87.092c3.138,0,4.706,2.479,4.706,5.211s-1.568,5.211-4.706,5.211c-3.152,0-4.721-2.479-4.721-5.211
			S183.789,87.092,186.941,87.092z M186.941,96.702c2.633,0,3.754-2.213,3.754-4.398c0-2.185-1.121-4.398-3.754-4.398
			c-2.647,0-3.769,2.214-3.769,4.398C183.172,94.489,184.293,96.702,186.941,96.702z"/>
		<path d="M193.811,87.303h6.345v0.812h-5.393v3.613h4.791v0.812h-4.791v4.763h-0.952V87.303z"/>
		<path d="M213.932,90.329c-0.336-1.541-1.61-2.424-3.067-2.424c-2.647,0-3.769,2.214-3.769,4.398c0,2.186,1.121,4.398,3.769,4.398
			c1.849,0,3.025-1.429,3.208-3.207h0.952c-0.267,2.451-1.821,4.02-4.16,4.02c-3.151,0-4.721-2.479-4.721-5.211
			s1.569-5.211,4.721-5.211c1.891,0,3.768,1.135,4.021,3.236H213.932z"/>
		<path d="M221.33,87.092c3.138,0,4.706,2.479,4.706,5.211s-1.568,5.211-4.706,5.211c-3.152,0-4.721-2.479-4.721-5.211
			S218.177,87.092,221.33,87.092z M221.33,96.702c2.633,0,3.754-2.213,3.754-4.398c0-2.185-1.121-4.398-3.754-4.398
			c-2.647,0-3.769,2.214-3.769,4.398C217.561,94.489,218.682,96.702,221.33,96.702z"/>
		<path d="M228.2,87.303h0.952v9.188h5.604v0.812H228.2V87.303z"/>
		<path d="M240.071,87.092c3.138,0,4.706,2.479,4.706,5.211s-1.568,5.211-4.706,5.211c-3.152,0-4.721-2.479-4.721-5.211
			S236.918,87.092,240.071,87.092z M240.071,96.702c2.633,0,3.754-2.213,3.754-4.398c0-2.185-1.121-4.398-3.754-4.398
			c-2.647,0-3.769,2.214-3.769,4.398C236.302,94.489,237.423,96.702,240.071,96.702z"/>
		<path d="M246.941,87.303h4.58c1.653,0,3.04,0.798,3.04,2.605c0,1.26-0.658,2.297-1.947,2.549v0.028
			c1.303,0.168,1.681,1.064,1.751,2.255c0.042,0.687,0.042,2.06,0.462,2.563h-1.051c-0.237-0.393-0.237-1.135-0.266-1.555
			c-0.084-1.401-0.196-2.956-2.003-2.886h-3.614v4.44h-0.952V87.303z M247.893,92.051h3.558c1.163,0,2.157-0.729,2.157-1.947
			s-0.729-1.988-2.157-1.988h-3.558V92.051z"/>
		<path d="M260.201,87.303h1.064l3.922,10.001h-1.022l-1.219-3.109h-4.553l-1.204,3.109h-1.022L260.201,87.303z M258.687,93.382
			h3.937l-1.933-5.127L258.687,93.382z"/>
		<path d="M266.8,87.303h3.46c3.012,0.069,4.594,1.723,4.594,5c0,3.278-1.582,4.931-4.594,5.001h-3.46V87.303z M267.752,96.492
			h2.031c2.871,0.014,4.118-1.204,4.118-4.188c0-2.983-1.247-4.202-4.118-4.188h-2.031V96.492z"/>
		<path d="M281.273,87.092c3.138,0,4.706,2.479,4.706,5.211s-1.568,5.211-4.706,5.211c-3.152,0-4.721-2.479-4.721-5.211
			S278.121,87.092,281.273,87.092z M281.273,96.702c2.633,0,3.754-2.213,3.754-4.398c0-2.185-1.121-4.398-3.754-4.398
			c-2.647,0-3.769,2.214-3.769,4.398C277.504,94.489,278.625,96.702,281.273,96.702z"/>
		<path d="M295.44,87.303h2.255l3.74,10.001h-2.283l-0.757-2.228h-3.74l-0.784,2.228h-2.227L295.44,87.303z M295.23,93.438h2.591
			l-1.261-3.67h-0.027L295.23,93.438z"/>
		<path d="M303.08,87.303h2.185l4.175,6.709h0.027v-6.709h2.06v10.001h-2.199l-4.16-6.695h-0.028v6.695h-2.059V87.303z"/>
		<path d="M315.733,93.985c0,1.33,1.037,1.849,2.214,1.849c0.771,0,1.947-0.225,1.947-1.247c0-1.078-1.499-1.261-2.97-1.652
			c-1.485-0.393-2.984-0.967-2.984-2.844c0-2.045,1.934-3.025,3.74-3.025c2.088,0,4.007,0.91,4.007,3.222h-2.13
			c-0.069-1.205-0.924-1.513-1.975-1.513c-0.7,0-1.513,0.294-1.513,1.135c0,0.77,0.476,0.868,2.983,1.513
			c0.729,0.182,2.97,0.644,2.97,2.913c0,1.835-1.443,3.208-4.16,3.208c-2.214,0-4.286-1.093-4.259-3.558H315.733z"/>
		<path d="M330.688,90.665c-0.14-0.994-1.092-1.751-2.185-1.751c-1.976,0-2.718,1.681-2.718,3.432c0,1.667,0.742,3.348,2.718,3.348
			c1.345,0,2.101-0.924,2.269-2.241h2.13c-0.225,2.494-1.947,4.091-4.398,4.091c-3.096,0-4.917-2.312-4.917-5.197
			c0-2.97,1.821-5.28,4.917-5.28c2.199,0,4.048,1.288,4.314,3.6H330.688z"/>
		<path d="M335.094,87.303h2.199v3.838h4.048v-3.838h2.199v10.001h-2.199V92.99h-4.048v4.314h-2.199V87.303z"/>
		<path d="M354.711,93.522c0,2.704-1.597,4.021-4.272,4.021c-2.689,0-4.258-1.303-4.258-4.021v-6.219h2.199v6.219
			c0,1.093,0.28,2.171,2.059,2.171c1.569,0,2.073-0.686,2.073-2.171v-6.219h2.199V93.522z"/>
		<path d="M359.471,89.152h-2.998v-1.849h8.195v1.849h-2.998v8.152h-2.199V89.152z"/>
		<path d="M365.92,95.567l5.365-6.415h-4.945v-1.849h7.872v1.736l-5.364,6.416h5.505v1.849h-8.433V95.567z"/>
		<path d="M380.929,87.303h3.096l2.339,6.877h0.028l2.213-6.877h3.096v10.001h-2.059v-7.088h-0.028l-2.451,7.088h-1.695
			l-2.451-7.018h-0.028v7.018h-2.059V87.303z"/>
		<path d="M394.393,87.303h7.479v1.849h-5.28v2.144h4.847v1.708h-4.847v2.452h5.393v1.849h-7.592V87.303z"/>
		<path d="M404.292,87.303h4.314c2.591,0,4.538,1.624,4.538,4.944c0,2.899-1.484,5.057-4.538,5.057h-4.314V87.303z M406.491,95.456
			h1.961c1.274,0,2.493-0.785,2.493-2.998c0-2.017-0.7-3.306-2.886-3.306h-1.568V95.456z"/>
		<path d="M415.418,87.303h2.199v10.001h-2.199V87.303z"/>
		<path d="M426.936,90.665c-0.14-0.994-1.092-1.751-2.185-1.751c-1.976,0-2.718,1.681-2.718,3.432c0,1.667,0.742,3.348,2.718,3.348
			c1.345,0,2.101-0.924,2.269-2.241h2.13c-0.225,2.494-1.947,4.091-4.398,4.091c-3.096,0-4.917-2.312-4.917-5.197
			c0-2.97,1.821-5.28,4.917-5.28c2.199,0,4.048,1.288,4.314,3.6H426.936z"/>
		<path d="M433.804,87.303h2.255l3.74,10.001h-2.283l-0.757-2.228h-3.739l-0.785,2.228h-2.227L433.804,87.303z M433.594,93.438
			h2.591l-1.261-3.67h-0.027L433.594,93.438z"/>
		<path d="M441.444,87.303h2.199v8.152h4.874v1.849h-7.073V87.303z"/>
		<path d="M461.705,90.665c-0.14-0.994-1.092-1.751-2.185-1.751c-1.976,0-2.718,1.681-2.718,3.432c0,1.667,0.742,3.348,2.718,3.348
			c1.345,0,2.101-0.924,2.269-2.241h2.13c-0.225,2.494-1.947,4.091-4.398,4.091c-3.096,0-4.917-2.312-4.917-5.197
			c0-2.97,1.821-5.28,4.917-5.28c2.199,0,4.048,1.288,4.314,3.6H461.705z"/>
		<path d="M468.573,87.303h2.255l3.74,10.001h-2.283l-0.757-2.228h-3.74l-0.784,2.228h-2.227L468.573,87.303z M468.363,93.438h2.591
			l-1.261-3.67h-0.027L468.363,93.438z"/>
		<path d="M476.212,87.303h3.096l2.339,6.877h0.028l2.213-6.877h3.096v10.001h-2.059v-7.088h-0.028l-2.451,7.088h-1.695
			l-2.451-7.018h-0.028v7.018h-2.059V87.303z"/>
		<path d="M489.676,87.303h4.51c2.494,0,3.46,1.582,3.46,3.207s-0.966,3.208-3.46,3.208h-2.311v3.586h-2.199V87.303z
			 M491.875,92.009h1.709c1.022,0,1.933-0.224,1.933-1.499c0-1.274-0.91-1.498-1.933-1.498h-1.709V92.009z"/>
		<path d="M508.051,93.522c0,2.704-1.597,4.021-4.272,4.021c-2.689,0-4.258-1.303-4.258-4.021v-6.219h2.199v6.219
			c0,1.093,0.28,2.171,2.059,2.171c1.569,0,2.073-0.686,2.073-2.171v-6.219h2.199V93.522z"/>
		<path d="M512.174,93.985c0,1.33,1.036,1.849,2.213,1.849c0.771,0,1.947-0.225,1.947-1.247c0-1.078-1.499-1.261-2.97-1.652
			c-1.485-0.393-2.983-0.967-2.983-2.844c0-2.045,1.933-3.025,3.739-3.025c2.087,0,4.007,0.91,4.007,3.222h-2.13
			c-0.069-1.205-0.924-1.513-1.975-1.513c-0.7,0-1.513,0.294-1.513,1.135c0,0.77,0.476,0.868,2.983,1.513
			c0.729,0.182,2.97,0.644,2.97,2.913c0,1.835-1.443,3.208-4.16,3.208c-2.214,0-4.286-1.093-4.259-3.558H512.174z"/>
		<g>
			<path d="M96.849,20.735l7.11,18.78l7.38-18.78h3v21.42h-2.04v-18.51h-0.06l-7.32,18.51h-1.92l-7.05-18.51h-0.06v18.51h-2.04
				v-21.42H96.849z"/>
			<path d="M127.854,26.885c0.91,0.44,1.675,1.03,2.295,1.77c0.62,0.74,1.09,1.605,1.41,2.595c0.319,0.99,0.48,2.045,0.48,3.165
				c0,1.121-0.161,2.175-0.48,3.165c-0.32,0.99-0.791,1.855-1.41,2.595c-0.62,0.74-1.385,1.325-2.295,1.755
				c-0.911,0.43-1.955,0.645-3.135,0.645s-2.225-0.215-3.135-0.645c-0.91-0.43-1.675-1.015-2.295-1.755
				c-0.62-0.74-1.09-1.605-1.41-2.595c-0.32-0.99-0.48-2.044-0.48-3.165c0-1.12,0.16-2.175,0.48-3.165
				c0.32-0.99,0.79-1.855,1.41-2.595c0.62-0.74,1.385-1.33,2.295-1.77c0.91-0.439,1.955-0.66,3.135-0.66
				S126.943,26.445,127.854,26.885z M122.349,28.385c-0.68,0.38-1.245,0.88-1.695,1.5c-0.45,0.62-0.79,1.325-1.02,2.115
				s-0.345,1.595-0.345,2.415c0,0.82,0.115,1.625,0.345,2.415c0.23,0.791,0.57,1.496,1.02,2.115c0.45,0.62,1.015,1.12,1.695,1.5
				c0.68,0.38,1.47,0.57,2.37,0.57c0.9,0,1.69-0.19,2.37-0.57c0.68-0.38,1.245-0.88,1.695-1.5c0.45-0.62,0.79-1.325,1.02-2.115
				c0.23-0.79,0.345-1.595,0.345-2.415c0-0.82-0.115-1.625-0.345-2.415s-0.57-1.495-1.02-2.115c-0.45-0.62-1.015-1.12-1.695-1.5
				c-0.68-0.38-1.47-0.57-2.37-0.57C123.819,27.815,123.029,28.005,122.349,28.385z"/>
			<path d="M136.779,20.735v21.42h-1.89v-21.42H136.779z"/>
			<path d="M141.804,37.04c0.19,0.73,0.495,1.385,0.915,1.965s0.95,1.06,1.59,1.44c0.64,0.38,1.41,0.57,2.31,0.57
				c1.38,0,2.46-0.36,3.24-1.08c0.78-0.72,1.32-1.68,1.62-2.88h1.89c-0.4,1.76-1.135,3.12-2.205,4.08
				c-1.07,0.96-2.585,1.44-4.545,1.44c-1.22,0-2.275-0.215-3.165-0.645c-0.89-0.43-1.616-1.02-2.175-1.77
				c-0.56-0.75-0.975-1.62-1.245-2.61c-0.27-0.99-0.405-2.035-0.405-3.135c0-1.02,0.135-2.02,0.405-3
				c0.27-0.979,0.685-1.854,1.245-2.625c0.56-0.77,1.285-1.39,2.175-1.86c0.89-0.47,1.945-0.705,3.165-0.705
				c1.24,0,2.3,0.25,3.18,0.75c0.88,0.5,1.595,1.155,2.145,1.965c0.55,0.81,0.945,1.74,1.185,2.79c0.24,1.05,0.34,2.115,0.3,3.195
				h-11.91C141.519,35.605,141.614,36.31,141.804,37.04z M151.164,31.265c-0.23-0.66-0.555-1.245-0.975-1.755
				c-0.42-0.51-0.93-0.919-1.53-1.23c-0.6-0.31-1.28-0.465-2.04-0.465c-0.78,0-1.47,0.155-2.07,0.465
				c-0.6,0.311-1.11,0.72-1.53,1.23c-0.42,0.51-0.755,1.1-1.005,1.77c-0.25,0.67-0.415,1.355-0.495,2.055h10.02
				C151.519,32.615,151.394,31.925,151.164,31.265z"/>
			<path d="M165.458,28.805c-0.7-0.66-1.68-0.99-2.94-0.99c-0.9,0-1.69,0.19-2.37,0.57c-0.68,0.38-1.245,0.88-1.695,1.5
				c-0.45,0.62-0.79,1.325-1.02,2.115s-0.345,1.595-0.345,2.415c0,0.82,0.115,1.625,0.345,2.415c0.23,0.791,0.57,1.496,1.02,2.115
				c0.45,0.62,1.015,1.12,1.695,1.5c0.68,0.38,1.47,0.57,2.37,0.57c0.58,0,1.13-0.109,1.65-0.33c0.52-0.22,0.979-0.525,1.38-0.915
				c0.4-0.39,0.729-0.855,0.99-1.395c0.26-0.54,0.42-1.13,0.48-1.77h1.89c-0.26,1.88-0.95,3.345-2.07,4.395
				c-1.121,1.05-2.561,1.575-4.32,1.575c-1.18,0-2.225-0.215-3.135-0.645c-0.91-0.43-1.675-1.015-2.295-1.755
				c-0.62-0.74-1.09-1.605-1.41-2.595c-0.32-0.99-0.48-2.044-0.48-3.165c0-1.12,0.16-2.175,0.48-3.165
				c0.32-0.99,0.79-1.855,1.41-2.595c0.62-0.74,1.385-1.33,2.295-1.77c0.91-0.439,1.955-0.66,3.135-0.66
				c1.66,0,3.065,0.44,4.215,1.32c1.15,0.88,1.834,2.21,2.055,3.99h-1.89C166.639,30.375,166.159,29.465,165.458,28.805z"/>
			<path d="M182.349,42.155v-2.79h-0.06c-0.5,1.04-1.226,1.835-2.175,2.385c-0.95,0.55-2.005,0.825-3.165,0.825
				c-0.98,0-1.815-0.135-2.505-0.405s-1.25-0.655-1.68-1.155c-0.431-0.5-0.746-1.11-0.945-1.83c-0.2-0.72-0.3-1.54-0.3-2.46v-10.05
				h1.89v10.08c0.04,1.4,0.365,2.46,0.975,3.18c0.61,0.72,1.665,1.08,3.165,1.08c0.82,0,1.52-0.175,2.1-0.525
				c0.58-0.35,1.06-0.814,1.44-1.395c0.38-0.58,0.66-1.245,0.84-1.995c0.18-0.75,0.27-1.515,0.27-2.295v-8.13h1.89v15.48H182.349z"
				/>
			<path d="M189.579,20.735v21.42h-1.89v-21.42H189.579z"/>
			<path d="M193.598,29.075c0.32-0.66,0.755-1.2,1.305-1.62c0.55-0.42,1.195-0.729,1.935-0.93c0.74-0.2,1.56-0.3,2.46-0.3
				c0.68,0,1.36,0.065,2.04,0.195c0.68,0.13,1.29,0.375,1.83,0.735c0.54,0.36,0.98,0.865,1.32,1.515
				c0.34,0.65,0.51,1.495,0.51,2.535v8.22c0,0.76,0.37,1.14,1.11,1.14c0.22,0,0.42-0.04,0.6-0.12v1.59
				c-0.22,0.041-0.415,0.07-0.585,0.09s-0.385,0.03-0.645,0.03c-0.48,0-0.865-0.064-1.155-0.195c-0.29-0.13-0.515-0.315-0.675-0.555
				c-0.161-0.24-0.266-0.525-0.315-0.855s-0.075-0.695-0.075-1.095h-0.06c-0.34,0.5-0.686,0.945-1.035,1.335
				c-0.35,0.39-0.74,0.715-1.17,0.975c-0.43,0.26-0.92,0.46-1.47,0.6c-0.551,0.14-1.206,0.21-1.965,0.21
				c-0.72,0-1.395-0.085-2.025-0.255c-0.63-0.17-1.18-0.44-1.65-0.81c-0.47-0.37-0.84-0.84-1.11-1.41
				c-0.27-0.57-0.405-1.245-0.405-2.025c0-1.08,0.24-1.925,0.72-2.535c0.48-0.609,1.115-1.075,1.905-1.395s1.68-0.545,2.67-0.675
				c0.99-0.13,1.995-0.255,3.015-0.375c0.4-0.04,0.75-0.09,1.05-0.15c0.3-0.06,0.55-0.165,0.75-0.315
				c0.2-0.15,0.355-0.355,0.465-0.615c0.109-0.26,0.165-0.6,0.165-1.02c0-0.64-0.105-1.165-0.315-1.575
				c-0.21-0.41-0.5-0.735-0.87-0.975c-0.371-0.24-0.8-0.405-1.29-0.495c-0.49-0.09-1.016-0.135-1.575-0.135
				c-1.2,0-2.18,0.285-2.94,0.855c-0.76,0.57-1.16,1.485-1.2,2.745h-1.89C193.088,30.515,193.278,29.735,193.598,29.075z
				 M203.048,33.695c-0.12,0.22-0.35,0.38-0.69,0.48c-0.34,0.1-0.641,0.17-0.9,0.21c-0.8,0.14-1.625,0.265-2.475,0.375
				c-0.851,0.11-1.625,0.275-2.325,0.495c-0.7,0.22-1.275,0.535-1.725,0.945c-0.45,0.41-0.675,0.995-0.675,1.755
				c0,0.48,0.095,0.905,0.285,1.275s0.445,0.69,0.765,0.96s0.69,0.475,1.11,0.615c0.42,0.14,0.85,0.21,1.29,0.21
				c0.72,0,1.41-0.109,2.07-0.33c0.66-0.22,1.234-0.54,1.725-0.96c0.49-0.42,0.879-0.93,1.17-1.53c0.29-0.6,0.435-1.28,0.435-2.04
				v-2.46H203.048z"/>
			<path d="M210.518,26.675v3.63h0.06c0.48-1.26,1.225-2.23,2.235-2.91c1.01-0.68,2.215-0.99,3.615-0.93v1.89
				c-0.86-0.04-1.64,0.075-2.34,0.345s-1.305,0.655-1.815,1.155c-0.51,0.5-0.905,1.095-1.185,1.785
				c-0.28,0.69-0.42,1.445-0.42,2.265v8.25h-1.89v-15.48H210.518z"/>
			<path d="M235.988,20.735c0.9,0,1.765,0.085,2.595,0.255c0.83,0.17,1.56,0.46,2.19,0.87c0.63,0.41,1.135,0.95,1.515,1.62
				c0.38,0.67,0.57,1.505,0.57,2.505c0,0.56-0.09,1.105-0.27,1.635c-0.18,0.53-0.435,1.01-0.765,1.44
				c-0.33,0.431-0.72,0.795-1.17,1.095c-0.45,0.3-0.955,0.51-1.515,0.63v0.06c1.38,0.18,2.479,0.746,3.3,1.695
				c0.82,0.95,1.23,2.125,1.23,3.525c0,0.34-0.03,0.725-0.09,1.155c-0.06,0.43-0.18,0.87-0.36,1.32
				c-0.18,0.45-0.44,0.896-0.78,1.335c-0.34,0.44-0.795,0.825-1.365,1.155c-0.57,0.33-1.271,0.6-2.1,0.81
				c-0.83,0.21-1.825,0.315-2.985,0.315h-9.06v-21.42H235.988z M235.988,30.125c0.82,0,1.53-0.095,2.13-0.285
				c0.6-0.19,1.1-0.45,1.5-0.78c0.4-0.33,0.7-0.715,0.9-1.155c0.2-0.439,0.3-0.91,0.3-1.41c0-2.68-1.61-4.02-4.83-4.02h-7.02v7.65
				H235.988z M235.988,40.415c0.76,0,1.479-0.064,2.16-0.195c0.68-0.13,1.28-0.365,1.8-0.705c0.52-0.34,0.93-0.795,1.23-1.365
				c0.3-0.57,0.45-1.285,0.45-2.145c0-1.38-0.485-2.415-1.455-3.105s-2.365-1.035-4.185-1.035h-7.02v8.55H235.988z"/>
			<path d="M248.498,20.735v3.03h-1.89v-3.03H248.498z M248.498,26.675v15.48h-1.89v-15.48H248.498z"/>
			<path d="M261.803,26.885c0.91,0.44,1.675,1.03,2.295,1.77c0.62,0.74,1.09,1.605,1.41,2.595c0.319,0.99,0.48,2.045,0.48,3.165
				c0,1.121-0.161,2.175-0.48,3.165c-0.32,0.99-0.791,1.855-1.41,2.595c-0.62,0.74-1.385,1.325-2.295,1.755
				c-0.911,0.43-1.955,0.645-3.135,0.645s-2.225-0.215-3.135-0.645c-0.91-0.43-1.675-1.015-2.295-1.755
				c-0.62-0.74-1.09-1.605-1.41-2.595c-0.32-0.99-0.48-2.044-0.48-3.165c0-1.12,0.16-2.175,0.48-3.165
				c0.32-0.99,0.79-1.855,1.41-2.595c0.62-0.74,1.385-1.33,2.295-1.77c0.91-0.439,1.955-0.66,3.135-0.66
				S260.892,26.445,261.803,26.885z M256.298,28.385c-0.68,0.38-1.245,0.88-1.695,1.5c-0.45,0.62-0.79,1.325-1.02,2.115
				s-0.345,1.595-0.345,2.415c0,0.82,0.115,1.625,0.345,2.415c0.23,0.791,0.57,1.496,1.02,2.115c0.45,0.62,1.015,1.12,1.695,1.5
				c0.68,0.38,1.47,0.57,2.37,0.57c0.9,0,1.69-0.19,2.37-0.57c0.68-0.38,1.245-0.88,1.695-1.5c0.45-0.62,0.79-1.325,1.02-2.115
				c0.23-0.79,0.345-1.595,0.345-2.415c0-0.82-0.115-1.625-0.345-2.415s-0.57-1.495-1.02-2.115c-0.45-0.62-1.015-1.12-1.695-1.5
				c-0.68-0.38-1.47-0.57-2.37-0.57C257.768,27.815,256.978,28.005,256.298,28.385z"/>
			<path d="M270.728,20.735v21.42h-1.89v-21.42H270.728z"/>
			<path d="M284.033,26.885c0.91,0.44,1.675,1.03,2.295,1.77c0.62,0.74,1.09,1.605,1.41,2.595c0.319,0.99,0.48,2.045,0.48,3.165
				c0,1.121-0.161,2.175-0.48,3.165c-0.32,0.99-0.791,1.855-1.41,2.595c-0.62,0.74-1.385,1.325-2.295,1.755
				c-0.911,0.43-1.955,0.645-3.135,0.645s-2.225-0.215-3.135-0.645c-0.91-0.43-1.675-1.015-2.295-1.755
				c-0.62-0.74-1.09-1.605-1.41-2.595c-0.32-0.99-0.48-2.044-0.48-3.165c0-1.12,0.16-2.175,0.48-3.165
				c0.32-0.99,0.79-1.855,1.41-2.595c0.62-0.74,1.385-1.33,2.295-1.77c0.91-0.439,1.955-0.66,3.135-0.66
				S283.122,26.445,284.033,26.885z M278.528,28.385c-0.68,0.38-1.245,0.88-1.695,1.5c-0.45,0.62-0.79,1.325-1.02,2.115
				s-0.345,1.595-0.345,2.415c0,0.82,0.115,1.625,0.345,2.415c0.23,0.791,0.57,1.496,1.02,2.115c0.45,0.62,1.015,1.12,1.695,1.5
				c0.68,0.38,1.47,0.57,2.37,0.57c0.9,0,1.69-0.19,2.37-0.57c0.68-0.38,1.245-0.88,1.695-1.5c0.45-0.62,0.79-1.325,1.02-2.115
				c0.23-0.79,0.345-1.595,0.345-2.415c0-0.82-0.115-1.625-0.345-2.415s-0.57-1.495-1.02-2.115c-0.45-0.62-1.015-1.12-1.695-1.5
				c-0.68-0.38-1.47-0.57-2.37-0.57C279.998,27.815,279.208,28.005,278.528,28.385z"/>
			<path d="M303.742,43.985c-0.25,0.919-0.645,1.7-1.185,2.34s-1.245,1.13-2.115,1.47c-0.87,0.34-1.935,0.51-3.195,0.51
				c-0.78,0-1.54-0.09-2.28-0.27c-0.74-0.18-1.405-0.46-1.995-0.84c-0.59-0.38-1.08-0.865-1.47-1.455
				c-0.39-0.59-0.615-1.295-0.675-2.115h1.89c0.1,0.58,0.295,1.065,0.585,1.455c0.29,0.39,0.64,0.705,1.05,0.945
				c0.41,0.24,0.865,0.415,1.365,0.525c0.5,0.11,1.01,0.165,1.53,0.165c1.76,0,3.03-0.5,3.81-1.5c0.78-1,1.17-2.44,1.17-4.32v-2.1
				h-0.06c-0.44,0.96-1.085,1.73-1.935,2.31c-0.851,0.58-1.845,0.87-2.985,0.87c-1.24,0-2.3-0.205-3.18-0.615
				c-0.88-0.41-1.605-0.975-2.175-1.695c-0.57-0.72-0.985-1.564-1.245-2.535c-0.26-0.97-0.39-2.005-0.39-3.105
				c0-1.06,0.155-2.065,0.465-3.015c0.31-0.95,0.76-1.78,1.35-2.49c0.59-0.71,1.32-1.27,2.19-1.68
				c0.87-0.41,1.865-0.615,2.985-0.615c0.58,0,1.125,0.081,1.635,0.24c0.51,0.16,0.975,0.385,1.395,0.675
				c0.42,0.291,0.795,0.625,1.125,1.005s0.585,0.78,0.765,1.2h0.06v-2.67h1.89v14.22C304.117,42.035,303.992,43.064,303.742,43.985z
				 M299.407,39.86c0.62-0.35,1.14-0.81,1.56-1.38c0.42-0.57,0.735-1.225,0.945-1.965c0.21-0.74,0.315-1.5,0.315-2.28
				c0-0.76-0.09-1.52-0.27-2.28c-0.18-0.76-0.47-1.45-0.87-2.07c-0.4-0.62-0.915-1.12-1.545-1.5c-0.63-0.38-1.395-0.57-2.295-0.57
				c-0.9,0-1.67,0.185-2.31,0.555c-0.641,0.371-1.17,0.855-1.59,1.455s-0.725,1.285-0.915,2.055s-0.285,1.555-0.285,2.355
				c0,0.78,0.1,1.54,0.3,2.28c0.2,0.74,0.51,1.395,0.93,1.965c0.42,0.57,0.95,1.03,1.59,1.38c0.64,0.35,1.4,0.525,2.28,0.525
				C298.067,40.385,298.787,40.21,299.407,39.86z"/>
			<path d="M307.987,26.675l5.1,13.2l4.771-13.2h1.889l-6.719,17.82c-0.281,0.66-0.541,1.205-0.781,1.635
				c-0.24,0.43-0.506,0.77-0.795,1.02c-0.289,0.25-0.629,0.43-1.02,0.54c-0.39,0.109-0.885,0.165-1.484,0.165
				c-0.381-0.021-0.676-0.035-0.885-0.045c-0.21-0.01-0.396-0.045-0.556-0.105v-1.59c0.22,0.04,0.435,0.075,0.646,0.105
				c0.209,0.03,0.424,0.045,0.645,0.045c0.42,0,0.766-0.06,1.035-0.18c0.27-0.12,0.504-0.285,0.705-0.495
				c0.199-0.21,0.369-0.465,0.51-0.765c0.139-0.3,0.289-0.63,0.449-0.99l0.66-1.74l-6.179-15.42H307.987z"/>
			<path d="M339.817,20.735c0.961,0,1.83,0.135,2.611,0.405c0.779,0.27,1.449,0.67,2.01,1.2c0.559,0.53,0.99,1.175,1.289,1.935
				c0.301,0.76,0.451,1.62,0.451,2.58s-0.15,1.82-0.451,2.58c-0.299,0.761-0.73,1.406-1.289,1.935c-0.561,0.53-1.23,0.93-2.01,1.2
				c-0.781,0.27-1.65,0.405-2.611,0.405h-7.469v9.18h-2.041v-21.42H339.817z M339.368,31.235c1.42,0,2.57-0.36,3.449-1.08
				c0.881-0.72,1.32-1.82,1.32-3.3s-0.439-2.58-1.32-3.3c-0.879-0.72-2.029-1.08-3.449-1.08h-7.02v8.76H339.368z"/>
			<path d="M350.586,26.675v3.63h0.061c0.48-1.26,1.225-2.23,2.234-2.91s2.215-0.99,3.615-0.93v1.89
				c-0.859-0.04-1.641,0.075-2.34,0.345s-1.305,0.655-1.814,1.155s-0.906,1.095-1.186,1.785s-0.42,1.445-0.42,2.265v8.25h-1.891
				v-15.48H350.586z"/>
			<path d="M367.432,26.885c0.91,0.44,1.674,1.03,2.295,1.77c0.619,0.74,1.09,1.605,1.41,2.595c0.32,0.99,0.48,2.045,0.48,3.165
				c0,1.121-0.16,2.175-0.48,3.165c-0.32,0.99-0.791,1.855-1.41,2.595c-0.621,0.74-1.385,1.325-2.295,1.755
				c-0.91,0.43-1.955,0.645-3.135,0.645s-2.225-0.215-3.135-0.645c-0.91-0.43-1.676-1.015-2.295-1.755
				c-0.621-0.74-1.092-1.605-1.41-2.595c-0.32-0.99-0.48-2.044-0.48-3.165c0-1.12,0.16-2.175,0.48-3.165
				c0.318-0.99,0.789-1.855,1.41-2.595c0.619-0.74,1.385-1.33,2.295-1.77c0.91-0.439,1.955-0.66,3.135-0.66
				S366.522,26.445,367.432,26.885z M361.926,28.385c-0.68,0.38-1.244,0.88-1.693,1.5c-0.451,0.62-0.791,1.325-1.021,2.115
				s-0.344,1.595-0.344,2.415c0,0.82,0.113,1.625,0.344,2.415c0.23,0.791,0.57,1.496,1.021,2.115c0.449,0.62,1.014,1.12,1.693,1.5
				s1.471,0.57,2.371,0.57s1.689-0.19,2.369-0.57s1.246-0.88,1.695-1.5c0.451-0.62,0.791-1.325,1.02-2.115
				c0.23-0.79,0.346-1.595,0.346-2.415c0-0.82-0.115-1.625-0.346-2.415c-0.229-0.79-0.568-1.495-1.02-2.115
				c-0.449-0.62-1.016-1.12-1.695-1.5c-0.68-0.38-1.469-0.57-2.369-0.57S362.606,28.005,361.926,28.385z"/>
			<path d="M387.141,43.985c-0.25,0.919-0.645,1.7-1.184,2.34c-0.541,0.64-1.246,1.13-2.115,1.47c-0.871,0.34-1.936,0.51-3.195,0.51
				c-0.779,0-1.541-0.09-2.279-0.27c-0.74-0.18-1.406-0.46-1.996-0.84c-0.59-0.38-1.08-0.865-1.471-1.455
				c-0.389-0.59-0.613-1.295-0.674-2.115h1.891c0.1,0.58,0.293,1.065,0.584,1.455c0.289,0.39,0.641,0.705,1.051,0.945
				c0.408,0.24,0.863,0.415,1.365,0.525c0.498,0.11,1.008,0.165,1.529,0.165c1.76,0,3.029-0.5,3.811-1.5
				c0.779-1,1.17-2.44,1.17-4.32v-2.1h-0.061c-0.439,0.96-1.086,1.73-1.936,2.31s-1.844,0.87-2.984,0.87
				c-1.24,0-2.301-0.205-3.18-0.615c-0.881-0.41-1.605-0.975-2.176-1.695c-0.57-0.72-0.984-1.564-1.244-2.535
				c-0.262-0.97-0.391-2.005-0.391-3.105c0-1.06,0.154-2.065,0.465-3.015c0.311-0.95,0.76-1.78,1.35-2.49s1.32-1.27,2.191-1.68
				c0.869-0.41,1.863-0.615,2.984-0.615c0.58,0,1.125,0.081,1.635,0.24c0.51,0.16,0.975,0.385,1.395,0.675
				c0.42,0.291,0.795,0.625,1.125,1.005s0.586,0.78,0.766,1.2h0.061v-2.67h1.889v14.22
				C387.516,42.035,387.391,43.064,387.141,43.985z M382.807,39.86c0.619-0.35,1.139-0.81,1.561-1.38
				c0.42-0.57,0.734-1.225,0.943-1.965c0.211-0.74,0.316-1.5,0.316-2.28c0-0.76-0.09-1.52-0.271-2.28
				c-0.18-0.76-0.469-1.45-0.869-2.07c-0.4-0.62-0.916-1.12-1.545-1.5c-0.631-0.38-1.395-0.57-2.295-0.57s-1.67,0.185-2.311,0.555
				c-0.641,0.371-1.17,0.855-1.59,1.455s-0.725,1.285-0.914,2.055c-0.191,0.77-0.285,1.555-0.285,2.355c0,0.78,0.1,1.54,0.299,2.28
				c0.201,0.74,0.51,1.395,0.93,1.965c0.42,0.57,0.951,1.03,1.592,1.38c0.639,0.35,1.398,0.525,2.279,0.525
				C381.467,40.385,382.186,40.21,382.807,39.86z"/>
			<path d="M392.858,26.675v3.63h0.059c0.48-1.26,1.227-2.23,2.236-2.91s2.215-0.99,3.615-0.93v1.89
				c-0.861-0.04-1.641,0.075-2.34,0.345c-0.701,0.27-1.307,0.655-1.816,1.155s-0.904,1.095-1.184,1.785
				c-0.281,0.69-0.42,1.445-0.42,2.265v8.25h-1.891v-15.48H392.858z"/>
			<path d="M400.958,29.075c0.318-0.66,0.754-1.2,1.305-1.62c0.549-0.42,1.193-0.729,1.934-0.93c0.74-0.2,1.561-0.3,2.461-0.3
				c0.68,0,1.359,0.065,2.039,0.195c0.68,0.13,1.291,0.375,1.83,0.735c0.541,0.36,0.98,0.865,1.32,1.515s0.51,1.495,0.51,2.535v8.22
				c0,0.76,0.371,1.14,1.111,1.14c0.219,0,0.42-0.04,0.6-0.12v1.59c-0.221,0.041-0.416,0.07-0.586,0.09s-0.385,0.03-0.645,0.03
				c-0.48,0-0.865-0.064-1.154-0.195c-0.291-0.13-0.516-0.315-0.676-0.555s-0.266-0.525-0.314-0.855
				c-0.051-0.33-0.076-0.695-0.076-1.095h-0.059c-0.342,0.5-0.686,0.945-1.035,1.335c-0.35,0.39-0.74,0.715-1.17,0.975
				c-0.432,0.26-0.92,0.46-1.471,0.6c-0.551,0.14-1.205,0.21-1.965,0.21c-0.721,0-1.395-0.085-2.025-0.255
				c-0.629-0.17-1.18-0.44-1.65-0.81c-0.469-0.37-0.84-0.84-1.109-1.41c-0.27-0.57-0.404-1.245-0.404-2.025
				c0-1.08,0.24-1.925,0.719-2.535c0.48-0.609,1.115-1.075,1.906-1.395c0.789-0.32,1.68-0.545,2.67-0.675
				c0.99-0.13,1.994-0.255,3.014-0.375c0.4-0.04,0.75-0.09,1.051-0.15s0.551-0.165,0.75-0.315s0.355-0.355,0.465-0.615
				c0.109-0.26,0.166-0.6,0.166-1.02c0-0.64-0.105-1.165-0.316-1.575c-0.209-0.41-0.5-0.735-0.869-0.975
				c-0.371-0.24-0.801-0.405-1.291-0.495s-1.014-0.135-1.574-0.135c-1.199,0-2.18,0.285-2.939,0.855
				c-0.762,0.57-1.16,1.485-1.201,2.745h-1.889C400.446,30.515,400.637,29.735,400.958,29.075z M410.407,33.695
				c-0.121,0.22-0.35,0.38-0.689,0.48c-0.342,0.1-0.641,0.17-0.9,0.21c-0.801,0.14-1.625,0.265-2.475,0.375
				c-0.852,0.11-1.625,0.275-2.326,0.495c-0.699,0.22-1.275,0.535-1.725,0.945c-0.449,0.41-0.676,0.995-0.676,1.755
				c0,0.48,0.096,0.905,0.285,1.275c0.191,0.37,0.445,0.69,0.766,0.96s0.689,0.475,1.109,0.615c0.42,0.14,0.85,0.21,1.291,0.21
				c0.719,0,1.41-0.109,2.07-0.33c0.66-0.22,1.234-0.54,1.725-0.96c0.49-0.42,0.879-0.93,1.17-1.53c0.289-0.6,0.436-1.28,0.436-2.04
				v-2.46H410.407z"/>
			<path d="M417.877,26.675v2.61h0.09c0.5-0.96,1.154-1.71,1.965-2.25s1.846-0.81,3.105-0.81c1.02,0,1.943,0.25,2.773,0.75
				c0.83,0.5,1.385,1.26,1.666,2.28c0.459-1.02,1.141-1.78,2.039-2.28c0.9-0.5,1.861-0.75,2.881-0.75c3.42,0,5.131,1.811,5.131,5.43
				v10.5h-1.891v-10.41c0-1.279-0.27-2.254-0.811-2.925c-0.539-0.67-1.49-1.005-2.85-1.005c-0.82,0-1.5,0.155-2.041,0.465
				c-0.539,0.311-0.969,0.725-1.289,1.245s-0.545,1.115-0.676,1.785c-0.129,0.67-0.193,1.365-0.193,2.085v8.76h-1.891v-10.5
				c0-0.52-0.055-1.015-0.166-1.485c-0.109-0.47-0.289-0.88-0.539-1.23c-0.25-0.35-0.586-0.625-1.006-0.825
				c-0.42-0.2-0.93-0.3-1.529-0.3c-0.801,0-1.496,0.145-2.086,0.435s-1.068,0.69-1.439,1.2c-0.369,0.51-0.645,1.11-0.824,1.8
				c-0.18,0.69-0.27,1.445-0.27,2.265v8.64h-1.891v-15.48H417.877z"/>
		</g>
	</g>
</g>
</svg>
