<?xml version="1.0" encoding="utf-8"?>
<!-- Generator: Adobe Illustrator 16.0.4, SVG Export Plug-In . SVG Version: 6.00 Build 0)  -->
<!DOCTYPE svg PUBLIC "-//W3C//DTD SVG 1.1//EN" "http://www.w3.org/Graphics/SVG/1.1/DTD/svg11.dtd">
<svg version="1.1" id="Layer_1" xmlns="http://www.w3.org/2000/svg" xmlns:xlink="http://www.w3.org/1999/xlink" x="0px" y="0px"
	 width="626.891px" height="98.319px" viewBox="0 0 626.891 98.319" enable-background="new 0 0 626.891 98.319"
	 xml:space="preserve">
<path fill="none" stroke="#000000" stroke-width="2.4011" stroke-miterlimit="10" d="M5.958,94.823
	c34.094,0,61.731-45.597,61.731-45.597c0.001,0,27.641-45.598,61.734-45.598c34.095,0,61.732,45.598,61.732,45.598
	c0.003,0,27.639,45.597,61.736,45.597c34.094,0,61.731-45.597,61.731-45.597s27.64-45.598,61.734-45.598
	c34.094,0,61.732,45.598,61.732,45.598c0.001,0,27.641,45.599,61.733,45.599c34.095,0,61.732-45.599,61.732-45.599
	S589.195,3.628,623.29,3.628"/>
<path fill="none" stroke="#CFB87C" stroke-width="1.6007" stroke-miterlimit="10" d="M4.124,3.628
	c34.095,0,61.733,45.598,61.733,45.598s27.639,45.597,61.734,45.597c34.094,0,61.731-45.597,61.731-45.597
	c0.001,0,27.641-45.598,61.735-45.598s61.731,45.598,61.731,45.598c0.002,0,27.641,45.597,61.735,45.597
	s61.732-45.597,61.732-45.597S463.895,3.628,497.99,3.628s61.732,45.598,61.732,45.598c0.004,0,27.641,45.599,61.735,45.599"/>
<path fill="none" stroke="#000000" stroke-width="1.2005" stroke-miterlimit="10" d="M242.474,52.921
	c5.668,0,10.087,2.352,10.087,2.352s4.596,1.557,10.263,1.557c2.819,0,6.322,0.765,8.45-0.823c2.564-1.911,2.196-6.103,2.196-9.516
	c0-11.968-9.702-21.669-21.67-21.669s-21.669,9.701-21.669,21.669c0,3.132,0.259,8.056,1.859,8.797
	C234.355,56.384,236.804,52.921,242.474,52.921z"/>
<path fill="none" stroke="#000000" stroke-width="1.2005" stroke-miterlimit="10" d="M263.981,60.64
	c-5.667,0-10.263-1.811-10.263-1.811s-4.398-2.005-10.043-2.517c-4.664-0.424-8.787,0.507-10.091,2.721
	c-4.465,7.576,10.897,13.948,19.383,13.948c8.122,0,22.679-5.246,18.906-12.902C271.091,58.495,266.568,60.64,263.981,60.64z"/>
<path fill="none" stroke="#000000" stroke-width="0.8004" stroke-miterlimit="10" d="M210.042,57.577c0,0,4.322,2.196,9.654,2.196
	c5.332,0,13.708-2.769,13.708-2.769s4.322-2.196,9.655-2.196c5.331,0,9.652,2.196,9.652,2.196s4.323,2.195,9.654,2.195
	c5.332,0,12.296-1.967,14.511-2.79c2.284-0.85,3.52-2.155,8.853-2.155s9.654,2.195,9.654,2.195"/>
<path fill="none" stroke="#000000" stroke-width="0.8004" stroke-miterlimit="10" d="M242.46,34.617v2.235V41.4
	c0,0.862-0.699,1.573-1.562,1.573h-3.672v0.003c-0.283-0.577-0.875-0.977-1.562-0.977c-0.961,0-1.739,0.778-1.739,1.739
	s0.778,1.739,1.739,1.739c0.743,0,1.375-0.466,1.625-1.121h2.859v0.005c0.862,0,1.562,0.7,1.562,1.562h0.001v3.448
	c-0.616,0.269-1.047,0.882-1.047,1.596c0,0.569,0.274,1.073,0.698,1.392h2.081c0.424-0.318,0.699-0.822,0.699-1.392
	c0-0.714-0.432-1.327-1.048-1.596v-3.546c0-0.29,0.235-0.524,0.524-0.524c0.126,0,0.254-0.02,0.345,0.056
	c0.527,0.417,1.063,0.576,1.286,0.353c0.268-0.268-0.011-0.979-0.621-1.588c-0.034-0.043-0.04-0.107-0.04-0.166
	c0-0.14,0.136-0.292,0.275-0.292h4.438c0.268,0.617,0.882,1.048,1.596,1.048c0.961,0,1.74-0.778,1.74-1.739s-0.779-1.739-1.74-1.739
	c-0.714,0-1.328,0.431-1.596,1.049h-3.876l0.001-0.002c-0.873,0-1.582-0.713-1.582-1.592v0.001v-3.838h-0.055v-5.906"/>
<path fill="none" stroke="#000000" stroke-width="0.8004" stroke-miterlimit="10" d="M258.666,38.47v2.236v4.547
	c0,0.862-0.698,1.573-1.562,1.573h-3.673v0.006c-0.281-0.578-0.874-0.979-1.561-0.979c-0.961,0-1.739,0.779-1.739,1.739
	c0,0.961,0.778,1.739,1.739,1.739c0.742,0,1.375-0.466,1.624-1.121h2.857v0.005c0.863,0,1.562,0.699,1.562,1.562h0.001v3.449
	c-0.616,0.267-1.047,0.881-1.047,1.596c0,0.569,0.275,1.073,0.698,1.39h2.082c0.423-0.316,0.698-0.82,0.698-1.39
	c0-0.715-0.432-1.329-1.048-1.596v-3.548c0-0.287,0.235-0.523,0.525-0.523c0.125,0,0.254-0.02,0.344,0.055
	c0.527,0.419,1.063,0.577,1.287,0.354c0.267-0.267-0.011-0.977-0.622-1.587c-0.033-0.044-0.04-0.107-0.04-0.166
	c0-0.141,0.137-0.292,0.276-0.292h4.438c0.267,0.617,0.881,1.048,1.595,1.048c0.961,0,1.74-0.779,1.74-1.74
	c0-0.959-0.779-1.739-1.74-1.739c-0.714,0-1.328,0.432-1.595,1.049h-3.877l0.001-0.002c-0.873,0-1.581-0.713-1.581-1.591v0.001
	v-3.838h-0.056v-5.908"/>
<g>
	<circle fill="none" stroke="#000000" stroke-width="0.8004" stroke-miterlimit="10" cx="244.077" cy="29.298" r="1.967"/>
	<circle fill="none" stroke="#000000" stroke-width="0.8004" stroke-miterlimit="10" cx="241.953" cy="26.551" r="1.968"/>
	<circle fill="none" stroke="#000000" stroke-width="0.8004" stroke-miterlimit="10" cx="238.799" cy="24.982" r="1.968"/>
	<circle fill="none" stroke="#000000" stroke-width="0.8004" stroke-miterlimit="10" cx="234.864" cy="24.583" r="1.968"/>
</g>
<circle fill="none" stroke="#000000" stroke-width="0.8004" stroke-miterlimit="10" cx="260.052" cy="32.831" r="1.968"/>
<path fill="none" stroke="#000000" stroke-width="1.2005" stroke-miterlimit="10" d="M360.462,74.986
	c-2.917,0-5.217-1.006-7.028-3.072c-1.053-1.202-0.832-2.909-0.637-4.415c0.129-0.997,0.25-1.941,0.043-2.667
	c-0.423-1.488-0.843-1.715-1.68-2.161c-0.527-0.282-1.181-0.633-1.968-1.348c-1.249-1.138-1.9-2.45-1.932-3.902
	c-0.051-2.179,1.273-4.578,4.045-7.336c0.457-0.455,0.977-0.908,1.524-1.389c1.28-1.12,2.733-2.393,3.399-3.742
	c0.58-1.173,0.563-2.225,0.545-3.442c-0.012-0.826-0.024-1.68,0.151-2.629c0.982-5.309,4.283-8.686,8.831-9.032
	c0.06-0.006,0.119-0.007,0.181-0.007c0.833,0,1.613,0.426,2.44,0.878c0.939,0.513,1.91,1.043,3.064,1.043
	c0.369,0,0.73-0.053,1.105-0.163c2.092-0.611,3.212-2.31,4.396-4.109c1.167-1.77,2.372-3.599,4.576-4.621
	c1.383-0.641,3.809-0.868,5.465-0.868c1.21,0,2.272,0.109,2.995,0.307c3.571,0.981,4.1,3.521,4.66,6.21
	c0.081,0.389,0.164,0.789,0.259,1.2c0.973,4.203,2.739,6.229,5.187,9.035c0.635,0.728,1.292,1.48,1.995,2.339
	c1.623,1.984,2.32,3.754,2.128,5.409c-0.287,2.497-2.562,4.243-4.759,5.931c-1.877,1.442-3.818,2.933-4.571,4.855
	c-0.514,1.315-0.667,3.219-0.83,5.235c-0.342,4.262-0.732,9.092-4.659,11.01c-0.56,0.272-1.193,0.411-1.881,0.411
	c-1.607,0-3.317-0.739-4.971-1.453c-1.433-0.62-2.786-1.205-3.891-1.237c-0.117-0.004-0.235-0.005-0.354-0.005
	c-2.785,0-5.883,0.947-8.878,1.863C366.408,74.034,363.296,74.986,360.462,74.986z"/>
<g>
	<g>
		<path fill="none" stroke="#000000" stroke-width="0.8004" stroke-miterlimit="10" d="M355.592,49.083
			c0.183-0.1,0.41-0.119,0.624-0.037c0.383,0.151,0.573,0.586,0.421,0.97c-0.059,0.15-0.16,0.273-0.285,0.352l-0.01-0.012
			c-1.243,0.774-2.377,1.735-3.358,2.86l0,0c-0.197,0.255-0.55,0.359-0.862,0.236c-0.385-0.15-0.573-0.584-0.424-0.97
			c0.035-0.084,0.081-0.159,0.137-0.224c1.094-1.259,2.358-2.327,3.745-3.189"/>
		<g>
			<path fill="none" stroke="#000000" stroke-width="0.8004" stroke-miterlimit="10" d="M374.061,56.187l0.002,0.001
				c0.856,1.232,1.474,2.616,1.824,4.072c-0.076-0.009-0.153-0.012-0.234,0.002l-1.252,0.223c-0.8-3.164-3.058-5.911-6.329-7.195
				c-0.496-0.192-0.999-0.345-1.502-0.461l-0.004,0.013c-0.386-0.15-0.818,0.04-0.971,0.424c-0.147,0.385,0.042,0.816,0.425,0.969
				l-0.003,0.006c0.509,0.102,1.013,0.247,1.51,0.443c3.566,1.396,5.737,4.824,5.7,8.442c0,0,0.014-0.013,0.013,0.075
				c-0.003,0.302,0.178,0.588,0.476,0.705c0.385,0.147,0.818-0.041,0.97-0.424c0.027-0.075,0.043-0.147,0.049-0.221
				c0.005-0.062-0.001-0.124-0.012-0.182l-0.001-0.001c0.004-0.377-0.024-0.75-0.062-1.122l1.257-0.221
				c0.077-0.017,0.149-0.045,0.217-0.08c0.159,1.378,0.087,2.797-0.257,4.199l0.027-0.127c-0.15,0.387,0.038,0.82,0.424,0.97
				c0.385,0.15,0.855-0.121,1.006-0.504c0.038-0.157,0.068-0.312,0.1-0.467l1.363,0.344c0.028,0.008,0.059,0.008,0.085,0.013
				c-0.167,0.803-0.396,1.605-0.707,2.396c-0.028,0.075-0.06,0.153-0.091,0.228h0.004c-0.15,0.385,0.038,0.817,0.423,0.969
				c0.382,0.151,0.815-0.038,0.969-0.424l-0.002-0.001c0.029-0.075,0.061-0.151,0.089-0.225c1.13-2.891,1.387-5.902,0.901-8.753
				h0.002c-0.045-0.247-0.215-0.467-0.466-0.564c-0.384-0.152-0.815,0.037-0.969,0.425c-0.051,0.136-0.062,0.278-0.035,0.416
				l-0.002,0.001c0.226,1.325,0.268,2.691,0.122,4.062l-1.407-0.356c-0.02-0.006-0.039-0.005-0.06-0.009
				c0.29-3.19-0.577-6.347-2.365-8.913h-0.002c-0.079-0.11-0.193-0.198-0.33-0.25c-0.384-0.152-0.815,0.038-0.966,0.424
				C373.898,55.741,373.932,55.993,374.061,56.187z"/>
			<path fill="none" stroke="#000000" stroke-width="0.8004" stroke-miterlimit="10" d="M370.042,50.887
				c0.02,0.007,0.037,0.019,0.055,0.03c0,0,0.001,0,0.004,0L370.042,50.887z"/>
			<path fill="none" stroke="#000000" stroke-width="0.8004" stroke-miterlimit="10" d="M352.481,56.536
				c-0.152,0.384-0.005,0.936,0.379,1.085c0.385,0.148,0.815-0.04,0.971-0.424l-0.054,0.081c1.114-2.034,2.765-3.64,4.697-4.707
				l0.577,1.318c0.009,0.021,0.02,0.037,0.029,0.055c-0.495,0.281-0.971,0.604-1.417,0.967c-0.064,0.066-0.118,0.148-0.153,0.242
				c-0.151,0.386,0.037,0.817,0.423,0.969c0.257,0.103,0.538,0.052,0.74-0.111l0.001,0.004c1.071-0.851,2.322-1.443,3.654-1.739
				l-0.003-0.011c0.239-0.048,0.453-0.215,0.546-0.46c0.151-0.383-0.038-0.818-0.423-0.966c-0.189-0.078-0.395-0.067-0.569,0.009
				l0.025-0.008c-0.507,0.118-1,0.274-1.479,0.464c-0.001-0.004-0.003-0.008-0.003-0.01l-0.597-1.362
				c1.216-0.486,2.515-0.774,3.84-0.842c1.639-0.082,3.321,0.173,4.948,0.81c0.301,0.117,0.592,0.244,0.877,0.383l0.005-0.003
				c0.385,0.149,0.817-0.039,0.968-0.425c0.143-0.365-0.021-0.77-0.367-0.937c-0.19-0.093-0.392-0.177-0.591-0.259
				c0.026-0.046,0.05-0.094,0.069-0.146l0.429-1.267c1.279,0.533,2.456,1.219,3.497,2.038c0.385,0.151,0.82-0.039,0.969-0.422
				c0.115-0.298,0.117-0.596-0.103-0.799c-1.221-0.951-2.601-1.745-4.12-2.339c-1.521-0.598-3.081-0.951-4.631-1.08l0.002-0.011
				c-0.306-0.006-0.596,0.177-0.713,0.478c-0.148,0.382,0.04,0.815,0.426,0.964c0.057,0.024,0.119,0.039,0.181,0.046l-0.002,0.016
				c1.031,0.087,2.067,0.285,3.091,0.597l-0.44,1.297c-0.014,0.04-0.023,0.083-0.03,0.125
				C362.048,48.318,355.514,51.018,352.481,56.536z"/>
		</g>
	</g>
	<path fill="none" stroke="#000000" stroke-width="0.8004" stroke-miterlimit="10" d="M357.381,59.921
		c1.504-3.844,5.837-5.738,9.679-4.234c0.864,0.339,1.629,0.819,2.28,1.404c2.244,2.022,3.121,5.297,1.954,8.276
		c-1.503,3.844-5.835,5.738-9.678,4.234C357.772,68.099,355.876,63.763,357.381,59.921z"/>
</g>
<g>
	<path fill="none" stroke="#000000" stroke-width="0.4002" stroke-miterlimit="10" d="M391.312,53.449
		c-0.18-0.178-0.905,0.26-1.621,0.974c-0.717,0.717-1.153,1.443-0.976,1.623l1.728,1.728c-0.014,0.021-0.094,0.102-0.115,0.115
		l-1.729-1.727c-0.178-0.179-0.904,0.26-1.621,0.975c-0.716,0.714-1.153,1.442-0.975,1.62l1.727,1.728
		c-0.014,0.022-0.094,0.104-0.116,0.118l-1.728-1.729l0,0l0,0c-0.089-0.089-0.439,0.117-0.782,0.46
		c-0.342,0.342-0.548,0.691-0.458,0.781l0,0l0,0l1.732,1.73c0.178,0.18,0.906-0.259,1.621-0.974
		c0.717-0.716,1.153-1.442,0.977-1.622l-1.729-1.729c0.015-0.02,0.094-0.101,0.117-0.115l1.727,1.729
		c0.178,0.177,0.906-0.262,1.621-0.976c0.717-0.716,1.153-1.441,0.975-1.622l-1.728-1.728c0.015-0.021,0.096-0.102,0.115-0.115
		l1.729,1.728l0,0l0,0c0.09,0.088,0.439-0.115,0.782-0.458c0.344-0.344,0.547-0.692,0.457-0.784l0,0l0,0L391.312,53.449z"/>
	<path fill="none" stroke="#000000" stroke-width="0.4002" stroke-miterlimit="10" d="M393.111,53.411
		c0.791,0.791,0.789,2.075,0,2.866l-5.538,5.537c-0.791,0.792-2.075,0.792-2.867,0l0,0c-0.792-0.792-0.792-2.076,0-2.867
		l5.537-5.536C391.034,52.619,392.318,52.619,393.111,53.411L393.111,53.411z"/>
</g>
<circle fill="none" stroke="#000000" stroke-width="0.8004" stroke-miterlimit="10" cx="393.657" cy="46.64" r="1.096"/>
<circle fill="none" stroke="#000000" stroke-width="0.8004" stroke-miterlimit="10" cx="397.156" cy="42.042" r="0.834"/>
<g>
	<path fill="none" stroke="#000000" stroke-width="0.8004" stroke-miterlimit="10" d="M363.221,41.956
		c-0.113,0.447,0.159,0.901,0.606,1.014c0.275,0.071,0.557-0.009,0.757-0.188l0.018,0.019c1.652-1.606,4.604-0.57,6.834-0.008
		c2.837,0.714,4.218,1.562,4.329,4.467c-0.081,0.429,0.183,0.854,0.612,0.961c0.447,0.114,0.899-0.157,1.013-0.605
		c0.017-0.068,0.021-0.139,0.022-0.207l0.03,0.002c-0.045-3.735-3.198-6-6.821-6.915c-2.715-0.683-4.939-0.945-6.995,0.938
		C363.433,41.54,363.281,41.723,363.221,41.956z"/>
	<path fill="none" stroke="#000000" stroke-width="0.8004" stroke-miterlimit="10" d="M360.717,40.582
		c-0.112,0.445,0.159,0.899,0.606,1.011c0.301,0.077,0.602-0.023,0.803-0.231c2.407-2.307,6.069-2.661,8.99-2.384
		c4.271,0.408,7.117,4.739,7.248,9.01c-0.07,0.422,0.191,0.835,0.614,0.941c0.447,0.111,0.9-0.159,1.015-0.605
		c0.013-0.061,0.021-0.121,0.021-0.183l0.024,0.001c-0.062-5.101-3.485-9.899-8.436-11.146c-3.82-0.961-7.866,0.468-10.694,3.217
		l0.009,0.009C360.825,40.321,360.753,40.441,360.717,40.582z"/>
	<path fill="none" stroke="#000000" stroke-width="0.8004" stroke-miterlimit="10" d="M358.69,38.002l0.028,0.027
		c-0.033,0.063-0.066,0.13-0.084,0.205c-0.113,0.446,0.157,0.899,0.606,1.012c0.205,0.054,0.413,0.02,0.591-0.074l0.024,0.026
		c2.9-2.822,9.274-4.993,13.007-2.854c4.959,2.841,8.336,6.017,8.403,11.723l0.021,0.002c0.059,0.311,0.288,0.577,0.616,0.659
		c0.445,0.111,0.9-0.159,1.011-0.604c0.007-0.027,0.01-0.051,0.014-0.075l0.006-0.001c0.002-0.015-0.001-0.029-0.001-0.043
		c0.01-0.082,0.006-0.161-0.007-0.237c-0.201-6.345-5.903-13.507-12.229-14.29c-3.551-0.438-8.193,0.986-11.76,4.298
		c-0.037,0.028-0.07,0.062-0.104,0.094C358.787,37.917,358.74,37.958,358.69,38.002z"/>
</g>
<g>
	<path fill="none" stroke="#000000" stroke-width="0.4002" stroke-miterlimit="10" d="M380.475,31.036
		c0,0.251,0.823,0.458,1.837,0.458c1.011,0,1.835-0.207,1.835-0.458v-2.443c0.025-0.005,0.139-0.005,0.164,0v2.443
		c0,0.251,0.822,0.458,1.835,0.458c1.012,0,1.836-0.207,1.836-0.458v-2.443c0.025-0.005,0.139-0.005,0.164,0v2.443l0,0l0,0
		c0.002,0.126,0.394,0.229,0.878,0.229s0.875-0.103,0.875-0.229l0,0l0,0v-2.448c0-0.253-0.823-0.458-1.835-0.458
		c-1.013,0-1.835,0.205-1.835,0.456v2.444c-0.026,0.006-0.139,0.006-0.164,0v-2.444c0-0.251-0.824-0.456-1.835-0.456
		c-1.014,0-1.836,0.205-1.836,0.456v2.444c-0.026,0.006-0.141,0.006-0.165,0v-2.442l0,0l0,0c0-0.127-0.394-0.229-0.877-0.229
		c-0.484,0-0.877,0.103-0.877,0.229l0,0l0,0V31.036z"/>
	<path fill="none" stroke="#000000" stroke-width="0.4002" stroke-miterlimit="10" d="M379.175,29.792
		c0-1.12,0.909-2.027,2.027-2.027h7.831c1.119,0,2.027,0.907,2.027,2.027l0,0c0,1.12-0.908,2.027-2.027,2.027h-7.831
		C380.084,31.819,379.175,30.912,379.175,29.792L379.175,29.792z"/>
</g>
<circle fill="none" stroke="#000000" stroke-width="0.8004" stroke-miterlimit="10" cx="390.495" cy="40.441" r="2.114"/>
<g>
	<path fill="none" stroke="#000000" stroke-width="0.8004" stroke-miterlimit="10" d="M120.562,68.29
		c11.896,2.729,19.597,3.217,25.085-12.043c2.169-6.029,0.214-19.505-6.225-25.201"/>
	<path fill="none" stroke="#000000" stroke-width="1.2005" stroke-miterlimit="10" d="M143.672,41.401
		c0-8.037-6.587-14.552-14.712-14.552c-6.981,0-12.824,4.813-14.331,11.266c-0.87,1.911-0.815,4.12-1.358,6.32
		c-1.81,7.337,6.336,14.553,13.719,14.553c4.716,0,8.875-2.525,11.344-6.37C141.594,49.949,143.672,45.917,143.672,41.401z"/>
	<path fill="none" stroke="#000000" stroke-width="0.8004" stroke-miterlimit="10" d="M126.686,58.982
		c-0.291,1.476-1.373,2.667-2.786,3.112"/>
	
		<ellipse fill="none" stroke="#000000" stroke-width="0.8004" stroke-miterlimit="10" cx="130.51" cy="24.366" rx="2.925" ry="1.804"/>
	<path fill="none" stroke="#000000" stroke-width="1.2005" stroke-miterlimit="10" d="M112.876,46.457
		c-0.209,2.959-1.154,5.102-5,5.161c-3.886,0.061-4.568-2.922-4.568-6.825c0-3.215,1.269-7.384,3.222-9.164
		c0,0,0.073-3.295,2.917-6.743c2.844-3.446,7.565-5.893,10.045-5.252c21.742-7.447,31.199,9.699,31.199,24.528
		c0,14.833-8.163,26.855-18.232,26.855c-10.822,1.144-22.911-5.038-22.911-11.25c0-2.45,1.353-4.719,3.648-6.566
		c0,0,2.258-0.954,3.567-0.954c3.984,0,7.214,3.066,7.214,6.851c0,0.813-0.311,1.786-0.585,2.511
		c2.209,0.512,4.731,0.802,7.41,0.802c5.799,0,12.285-8.692,12.285-20.326"/>
	<path fill="none" stroke="#000000" stroke-width="0.8004" stroke-miterlimit="10" d="M104.867,44.597
		c0,2.746,1.572,4.973,3.51,4.973s3.51-0.917,3.51-4.973c0-4.583-1.572-4.972-3.51-4.972S104.867,41.851,104.867,44.597z"/>
	<path fill="none" stroke="#000000" stroke-width="0.8004" stroke-miterlimit="10" d="M114.34,51.383
		c-0.54,0.194-1.287,0.316-2.114,0.316c-0.822,0-1.565-0.12-2.103-0.312"/>
	<polyline fill="none" stroke="#000000" stroke-width="0.8004" stroke-miterlimit="10" points="127.976,67.738 129.874,69.634 
		128.531,71.959 	"/>
	<polyline fill="none" stroke="#000000" stroke-width="0.8004" stroke-miterlimit="10" points="130.059,67.568 131.757,69.647 
		130.188,71.826 	"/>
	<polyline fill="none" stroke="#000000" stroke-width="0.8004" stroke-miterlimit="10" points="142.236,34.418 142.345,34.078 
		145.027,34.211 	"/>
	<polyline fill="none" stroke="#000000" stroke-width="0.8004" stroke-miterlimit="10" points="143.339,38.316 143.745,37.388 
		146.399,37.786 	"/>
	<polyline fill="none" stroke="#000000" stroke-width="0.8004" stroke-miterlimit="10" points="144.011,41.527 145.015,40.583 
		147.297,41.995 	"/>
	<polyline fill="none" stroke="#000000" stroke-width="0.8004" stroke-miterlimit="10" points="143.849,45.44 145.928,43.745 
		148.105,45.313 	"/>
	<polyline fill="none" stroke="#000000" stroke-width="0.8004" stroke-miterlimit="10" points="144.274,48.779 146.466,47.23 
		148.53,48.947 	"/>
	<polyline fill="none" stroke="#000000" stroke-width="0.8004" stroke-miterlimit="10" points="144.179,51.895 146.611,50.764 
		148.335,52.821 	"/>
	<polyline fill="none" stroke="#000000" stroke-width="0.8004" stroke-miterlimit="10" points="143.612,55.166 145.987,53.918 
		147.808,55.89 	"/>
	<polyline fill="none" stroke="#000000" stroke-width="0.8004" stroke-miterlimit="10" points="143.037,57.815 145.609,57.049 
		147.016,59.336 	"/>
	<polyline fill="none" stroke="#000000" stroke-width="0.8004" stroke-miterlimit="10" points="141.786,60.073 144.431,59.614 
		145.558,62.05 	"/>
	<polyline fill="none" stroke="#000000" stroke-width="0.8004" stroke-miterlimit="10" points="139.814,62.612 142.499,62.604 
		143.2,65.195 	"/>
	<polyline fill="none" stroke="#000000" stroke-width="0.8004" stroke-miterlimit="10" points="138.231,64.987 140.906,65.194 
		141.399,67.832 	"/>
	<polyline fill="none" stroke="#000000" stroke-width="0.8004" stroke-miterlimit="10" points="136.327,66 138.79,67.066 
		138.399,69.719 	"/>
	<polyline fill="none" stroke="#000000" stroke-width="0.8004" stroke-miterlimit="10" points="134.103,67.016 136.256,68.618 
		135.266,71.112 	"/>
	<polyline fill="none" stroke="#000000" stroke-width="0.8004" stroke-miterlimit="10" points="132.486,67.585 134.383,69.484 
		133.041,71.807 	"/>
	<path fill="none" stroke="#000000" stroke-width="0.8004" stroke-miterlimit="10" d="M134.017,72.764
		c-7.893,2.05-22.039-4.777-22.039-9.433c0-1.838,1.014-3.538,2.733-4.922"/>
	<path fill="none" stroke="#000000" stroke-width="0.8004" stroke-miterlimit="10" d="M114.691,58.376
		c2.946-1.176,5.383,3.565,5.383,6.401c0,0.61,3.523,1.694,3.317,2.238"/>
	<path fill="none" stroke="#000000" stroke-width="0.8004" stroke-miterlimit="10" d="M149.226,48.653
		c0,12.557-7.445,24.279-15.97,24.279"/>
	
		<line fill="none" stroke="#000000" stroke-width="0.8004" stroke-miterlimit="10" x1="128.929" y1="24.415" x2="132.07" y2="24.415"/>
</g>
<g>
	<polygon fill="none" stroke="#000000" stroke-width="0.8004" stroke-miterlimit="10" points="462.361,48.292 457.642,48.432 
		459.88,44.276 	"/>
	
		<line fill="none" stroke="#000000" stroke-width="0.8004" stroke-miterlimit="10" x1="462.255" y1="48.265" x2="462.463" y2="51.445"/>
	
		<line fill="none" stroke="#000000" stroke-width="0.8004" stroke-miterlimit="10" x1="459.633" y1="43.935" x2="457.047" y2="42.678"/>
	<g>
		<path fill="none" stroke="#000000" stroke-width="0.8004" stroke-miterlimit="10" d="M521.364,46.446h-35.167
			c-6.476,0-11.724,5.247-11.724,11.722c0,6.476,5.248,11.725,11.724,11.725h35.168c6.475,0,11.724-5.249,11.724-11.725
			C533.088,51.693,527.839,46.446,521.364,46.446z"/>
		<polygon fill="none" stroke="#000000" stroke-width="0.8004" stroke-miterlimit="10" points="508,26.352 513.152,23.377 
			518.305,26.352 518.305,32.301 513.152,35.275 508,32.301 		"/>
		<polygon fill="none" stroke="#000000" stroke-width="0.8004" stroke-miterlimit="10" points="510.99,30.624 508.759,26.761 
			513.218,26.761 		"/>
		<polygon fill="none" stroke="#000000" stroke-width="0.8004" stroke-miterlimit="10" points="515.554,30.6 513.324,26.737 
			517.784,26.737 		"/>
		<polygon fill="none" stroke="#000000" stroke-width="0.8004" stroke-miterlimit="10" points="515.449,30.624 513.218,34.485 
			510.99,30.624 		"/>
		
			<line fill="none" stroke="#000000" stroke-width="0.8004" stroke-miterlimit="10" x1="510.701" y1="30.612" x2="508" y2="32.301"/>
		
			<line fill="none" stroke="#000000" stroke-width="0.8004" stroke-miterlimit="10" x1="513.271" y1="26.761" x2="513.152" y2="23.377"/>
		
			<line fill="none" stroke="#000000" stroke-width="0.8004" stroke-miterlimit="10" x1="515.789" y1="30.612" x2="518.305" y2="32.301"/>
		
			<line fill="none" stroke="#000000" stroke-width="0.8004" stroke-miterlimit="10" x1="511.929" y1="34.57" x2="511.929" y2="35.425"/>
		
			<line fill="none" stroke="#000000" stroke-width="0.8004" stroke-miterlimit="10" x1="514.434" y1="34.573" x2="514.434" y2="35.428"/>
		<path fill="none" stroke="#000000" stroke-width="0.8004" stroke-miterlimit="10" d="M515.457,44.419
			c0,0.161-0.132,0.291-0.292,0.291h-3.788c-0.16,0-0.29-0.13-0.29-0.291v-8.158c0-0.16,0.13-0.291,0.29-0.291h3.788
			c0.16,0,0.292,0.13,0.292,0.291V44.419z"/>
		<path fill="none" stroke="#000000" stroke-width="0.8004" stroke-miterlimit="10" d="M515.82,35.701
			c0,0.151-0.033,0.273-0.073,0.273h-4.953c-0.039,0-0.072-0.123-0.072-0.273l0,0c0-0.152,0.033-0.276,0.072-0.276h4.953
			C515.787,35.425,515.82,35.548,515.82,35.701L515.82,35.701z"/>
		<path fill="none" stroke="#000000" stroke-width="0.8004" stroke-miterlimit="10" d="M515.82,45.267
			c0,0.305-0.033,0.553-0.073,0.553h-4.953c-0.039,0-0.072-0.248-0.072-0.553l0,0c0-0.308,0.033-0.557,0.072-0.557h4.953
			C515.787,44.71,515.82,44.959,515.82,45.267L515.82,45.267z"/>
		<polyline fill="none" stroke="#000000" stroke-width="0.8004" stroke-miterlimit="10" points="504.628,48.508 508.116,41.194 
			510.791,45.827 		"/>
		<polyline fill="none" stroke="#000000" stroke-width="0.8004" stroke-miterlimit="10" points="515.802,45.254 517.827,41.748 
			520.542,48.508 		"/>
		<polyline fill="none" stroke="#000000" stroke-width="0.8004" stroke-miterlimit="10" points="515.457,39.613 516.573,37.677 
			522.213,46.289 		"/>
		<polyline fill="none" stroke="#000000" stroke-width="0.8004" stroke-miterlimit="10" points="506.772,46.289 510.373,38.49 
			511.086,39.724 		"/>
		<polyline fill="none" stroke="#000000" stroke-width="0.8004" stroke-miterlimit="10" points="502.899,46.446 508.026,37.566 
			511.086,42.867 		"/>
		<polyline fill="none" stroke="#000000" stroke-width="0.8004" stroke-miterlimit="10" points="515.457,42.504 518.307,37.566 
			523.433,46.446 		"/>
		<polygon fill="none" stroke="#000000" stroke-width="0.8004" stroke-miterlimit="10" points="457.224,48.625 457.047,42.678 
			462.109,39.55 467.347,42.372 467.523,48.318 462.463,51.445 		"/>
		<polygon fill="none" stroke="#000000" stroke-width="0.8004" stroke-miterlimit="10" points="464.628,44.026 459.91,44.167 
			462.148,40.01 		"/>
		<polygon fill="none" stroke="#000000" stroke-width="0.8004" stroke-miterlimit="10" points="464.598,44.135 467.078,48.152 
			462.361,48.292 		"/>
		
			<line fill="none" stroke="#000000" stroke-width="0.8004" stroke-miterlimit="10" x1="464.628" y1="44.026" x2="467.347" y2="42.372"/>
		
			<line fill="none" stroke="#000000" stroke-width="0.8004" stroke-miterlimit="10" x1="466.323" y1="49.061" x2="467.076" y2="49.465"/>
		
			<line fill="none" stroke="#000000" stroke-width="0.8004" stroke-miterlimit="10" x1="467.512" y1="46.856" x2="468.265" y2="47.262"/>
		<path fill="none" stroke="#000000" stroke-width="0.8004" stroke-miterlimit="10" d="M476.667,50.624
			c0.141,0.077,0.194,0.254,0.117,0.396l-1.795,3.335c-0.076,0.142-0.252,0.193-0.395,0.118l-7.183-3.867
			c-0.141-0.076-0.195-0.253-0.118-0.394l1.795-3.336c0.076-0.141,0.254-0.194,0.395-0.118L476.667,50.624z"/>
		<path fill="none" stroke="#000000" stroke-width="0.8004" stroke-miterlimit="10" d="M469.163,46.17
			c0.133,0.071,0.225,0.159,0.207,0.194l-2.349,4.36c-0.02,0.036-0.144,0.005-0.276-0.065l0,0c-0.133-0.071-0.227-0.159-0.208-0.195
			l2.349-4.36C468.904,46.069,469.029,46.099,469.163,46.17L469.163,46.17z"/>
		<path fill="none" stroke="#000000" stroke-width="0.8004" stroke-miterlimit="10" d="M477.585,50.706
			c0.269,0.146,0.471,0.292,0.453,0.326l-2.349,4.361c-0.02,0.036-0.252-0.053-0.521-0.198l0,0
			c-0.271-0.146-0.474-0.292-0.455-0.328l2.348-4.361C477.08,50.471,477.315,50.56,477.585,50.706L477.585,50.706z"/>
		<polyline fill="none" stroke="#000000" stroke-width="0.8004" stroke-miterlimit="10" points="478.039,61.643 470.347,55.557 
			475.694,55.398 		"/>
		<polyline fill="none" stroke="#000000" stroke-width="0.8004" stroke-miterlimit="10" points="476.263,50.063 474.134,46.619 
			483.788,50.74 		"/>
		<polyline fill="none" stroke="#000000" stroke-width="0.8004" stroke-miterlimit="10" points="472.434,48.345 471.26,46.445 
			484.199,46.619 		"/>
		<polyline fill="none" stroke="#000000" stroke-width="0.8004" stroke-miterlimit="10" points="474.71,56.917 469.036,52.289 
			470.461,52.247 		"/>
		<polyline fill="none" stroke="#000000" stroke-width="0.8004" stroke-miterlimit="10" points="475.822,63.626 467.111,53.917 
			473.228,53.736 		"/>
		<polyline fill="none" stroke="#000000" stroke-width="0.8004" stroke-miterlimit="10" points="474.98,49.715 471.985,44.865 
			480.822,47.75 		"/>
		<path fill="none" stroke="#000000" stroke-width="0.8004" stroke-miterlimit="10" d="M486.063,62.427
			c0.527-0.828,1.507-3.315,0.301-3.692c-0.603-0.151-1.205,0.754-1.733,0.604c-0.828-0.151-0.301-0.604-0.527-1.281
			c-0.527-1.809-2.712-2.336-4.445-2.184c-0.829,0.074-0.603,0.602-1.507-0.077c-0.603-0.451-1.206-1.733-1.206-2.487"/>
		<circle fill="none" stroke="#000000" stroke-width="0.8004" stroke-miterlimit="10" cx="516.154" cy="58.875" r="7.429"/>
	</g>
</g>
</svg>
